<svg width="16" height="17" viewBox="0 0 16 17" fill="none" xmlns="http://www.w3.org/2000/svg">
<path d="M11.4607 4.73931C11.6251 4.59489 11.8438 4.51504 12.0707 4.51662C12.2976 4.51821 12.515 4.6011 12.6769 4.74781C12.8389 4.89451 12.9328 5.09356 12.9388 5.30295C12.9448 5.51233 12.8624 5.71568 12.7091 5.87008L8.05408 11.2439C7.97404 11.3235 7.87743 11.3874 7.77004 11.4317C7.66264 11.476 7.54667 11.4999 7.42904 11.5019C7.31142 11.5039 7.19456 11.484 7.08546 11.4434C6.97637 11.4028 6.87726 11.3423 6.79408 11.2655L3.70708 8.41593C3.62111 8.34198 3.55216 8.25281 3.50434 8.15374C3.45651 8.05466 3.4308 7.94771 3.42873 7.83926C3.42665 7.73081 3.44826 7.62309 3.49227 7.52252C3.53628 7.42194 3.60178 7.33058 3.68487 7.25389C3.76796 7.17719 3.86693 7.11673 3.97588 7.0761C4.08484 7.03548 4.20154 7.01553 4.31903 7.01744C4.43651 7.01936 4.55238 7.0431 4.65971 7.08724C4.76704 7.13139 4.86364 7.19503 4.94375 7.27439L7.38675 9.52839L11.4386 4.76301C11.4459 4.75471 11.4537 4.7468 11.4619 4.73931H11.4607Z" fill="#F4F4FD"/>
<rect x="0.625" y="0.875" width="14.75" height="14.75" rx="1.375" stroke="#2E2F42" stroke-width="1.25"/>
</svg>
