<svg xmlns="http://www.w3.org/2000/svg" aria-hidden="true" style="position:absolute;width:0;height:0;overflow:hidden"><defs><symbol id="icon-close" viewBox="0 0 32 32"><path d="M32 3.2 28.8 0 16 12.8 3.2 0 0 3.2 12.8 16 0 28.8 3.2 32 16 19.2 28.8 32l3.2-3.2L19.2 16 32 3.2z"/></symbol><symbol id="icon-Logo-1" viewBox="0 0 59 32"><path d="M28.63 3.39h-.07l-.36-.01h-.32c-.24 0-.48 0-.72.02h.03c-2.08.11-4.11.64-6 1.53l-.25.12V17.7l.58-.2a19.19 19.19 0 0 1 6.21-1.09h.02v1.67l-.6.01h-.06c-2.88.16-5.54.96-7.9 2.25l.1-.05V4.06a16.62 16.62 0 0 1 4.34-1.78l.12-.03a16.6 16.6 0 0 1 4.18-.53h.25c1.04 0 2.05.14 3.02.39l-.09-.02v1.64c-.58-.15-1.27-.25-1.98-.3l-.04-.01h-.04l-.42-.03zm2.88 1.67a18.04 18.04 0 0 0 5.65-.55l-.12.03a18.1 18.1 0 0 0 4.33-1.7l-.09.04v15.94a16.65 16.65 0 0 1-4.33 1.79l-.12.02c-1.37.35-2.78.54-4.19.54h-.1c-1.1 0-2.16-.14-3.17-.4l.09.02V4.75c.6.15 1.3.26 2.01.3l.04.01zm8.12.13-.58.2a19.18 19.18 0 0 1-7.52 1.05h.05l-.46-.02v13l.4.04a15.03 15.03 0 0 0 5.02-.46l-.11.02c1.13-.29 2.11-.65 3.04-1.1l-.1.03.26-.11V5.19zM20.42 25.83a.86.86 0 0 0-.61-.25h-.04c-.12 0-.24.02-.36.07a.86.86 0 0 0-.55.84v2.17a.93.93 0 0 0 .3.73c.1.07.2.12.3.15s.22.05.33.05c.5-.01.9-.42.9-.92v-.24h-.58v.2c.01.06 0 .13-.02.19a.34.34 0 0 1-.08.12.4.4 0 0 1-.24.08h-.04a.29.29 0 0 1-.23-.11.51.51 0 0 1-.08-.28V26.6c0-.12.03-.23.08-.32a.28.28 0 0 1 .27-.14h.01c.1 0 .19.05.24.12.06.08.1.18.1.29v.2h.56v-.23c0-.27-.1-.5-.26-.69zm3.37-.02a1 1 0 0 0-.99-.17.9.9 0 0 0-.29.16.96.96 0 0 0-.3.73v2.08c0 .15.02.3.08.43.05.11.12.21.22.29a.98.98 0 0 0 .98.19.89.89 0 0 0 .6-.9V26.5a.94.94 0 0 0-.3-.69zm-.26 2.8v.03c0 .1-.05.2-.12.27a.42.42 0 0 1-.53 0 .37.37 0 0 1-.11-.26V26.5c0-.11.04-.2.11-.27a.42.42 0 0 1 .53 0c.07.06.12.16.12.26v2.11zm4.68.93V25.6h-.55l-.71 2.09h-.01l-.72-2.09h-.54v3.94h.56v-2.4h.01l.55 1.7h.29l.55-1.7v2.4h.57zm3.2-3.65a.73.73 0 0 0-.32-.22 1.22 1.22 0 0 0-.4-.06h-.84v3.93h.56V28h.28c.18.01.35-.02.51-.1a.94.94 0 0 0 .43-.64 2.73 2.73 0 0 0-.02-1.03v.01a.84.84 0 0 0-.2-.36zm-.29 1.2c0 .06-.02.13-.06.2a.3.3 0 0 1-.14.13.57.57 0 0 1-.25.06h-.27v-1.34h.29c.09 0 .17 0 .25.05.06.03.1.08.14.14.02.06.04.14.04.22v.54zm2.94-1.48h-.46l-.86 3.93h.56l.17-.84h.76l.17.84h.55l-.88-3.93zm-.52 2.55.28-1.43.28 1.43h-.56zm4.15-.18h-.01l-.85-2.37h-.54v3.93h.56v-2.36h.01l.85 2.36h.53V25.6h-.56v2.37zm3.42-2.37-.45 1.56-.47-1.56h-.59l.78 2.27v1.66h.56v-1.66l.77-2.27h-.6zm-22.25 5.04h.27v.76h.18v-.76h.27v-.15h-.72v.15zm2.27-.15-.35.91h.2l.06-.2h.37l.08.2h.2l-.36-.91h-.2zm-.03.55.12-.34.13.34h-.25zm2.27.02h.22v.12a.34.34 0 0 1-.22.08h-.01a.23.23 0 0 1-.18-.09.38.38 0 0 1-.07-.22v-.02c0-.2.09-.3.26-.3h.02a.2.2 0 0 1 .19.14l.18-.03c-.04-.18-.17-.27-.39-.27h-.01a.45.45 0 0 0-.3.11.44.44 0 0 0-.14.36c0 .12.04.25.12.34.08.09.2.14.32.14h.02c.15 0 .29-.05.4-.15v-.36h-.4v.15zm2.3-.57h-.18v.91h.64v-.15h-.46v-.76zm1.94 0h-.19v.91h.2v-.91zm1.9.6-.38-.6h-.17v.91h.17v-.6l.36.6h.19v-.91h-.18v.6zm1.71-.09h.46v-.15h-.46v-.2h.49v-.16h-.68v.91h.7v-.15h-.51V31zm4.16-.15h-.36v-.36h-.19v.91h.19v-.4h.36v.4h.18v-.91h-.18v.36zm1.72.15h.46v-.15h-.46v-.2h.5v-.16h-.68v.91h.7v-.15h-.52V31zm2.34 0c.16-.03.24-.11.24-.26a.21.21 0 0 0-.09-.2.5.5 0 0 0-.23-.05h-.42v.91h.18v-.38h.03c.04 0 .08 0 .12.02l.07.07.2.29h.21l-.11-.17a.6.6 0 0 0-.2-.23zm-.18-.12h-.14v-.23h.14l.2.01a.11.11 0 0 1-.01.2.52.52 0 0 1-.16.02h-.03zm1.95.12h.45v-.15h-.45v-.2h.49v-.16h-.68v.91h.7v-.15h-.51V31z"/></symbol><symbol id="icon-Logo-2" viewBox="0 0 59 32"><path d="M21.03 28.13h.03l.03.02.12.11c-.1.1-.22.17-.35.23-.16.06-.33.09-.51.08-.16 0-.32-.02-.47-.07a.96.96 0 0 1-.59-.54 1.06 1.06 0 0 1 .01-.86v.01a1.03 1.03 0 0 1 .62-.54 1.47 1.47 0 0 1 .95 0c.11.04.23.1.33.18l-.1.13c-.02 0-.02.01-.03.02a.08.08 0 0 1-.04.01.1.1 0 0 1-.05-.01l-.06-.03-.08-.05a.9.9 0 0 0-.4-.1l-.04.01c-.1 0-.24.02-.34.06a.73.73 0 0 0-.46.4.9.9 0 0 0-.06.35v.04c0 .33.2.6.5.7.1.04.21.06.32.06h.2c.16-.03.3-.09.41-.18a.1.1 0 0 1 .06-.03zm3.65-.6c0 .14-.03.29-.09.42a.9.9 0 0 1-.24.32c-.1.1-.22.18-.37.22-.3.1-.65.1-.96 0a1.13 1.13 0 0 1-.37-.22.95.95 0 0 1-.24-.32 1.07 1.07 0 0 1 0-.84c.06-.13.14-.24.24-.33.11-.1.23-.16.37-.2a1.5 1.5 0 0 1 .97 0 .97.97 0 0 1 .7.93l-.01.02zm-.33 0a.97.97 0 0 0-.06-.34.7.7 0 0 0-.43-.4 1.12 1.12 0 0 0-.7 0c-.1.03-.2.08-.27.15a.82.82 0 0 0-.17.25.98.98 0 0 0 0 .68c.07.2.23.35.43.4.23.08.48.08.7 0a.7.7 0 0 0 .44-.4c.04-.11.06-.23.05-.34zm2.82.36.02.07.08-.15.81-1.26.05-.03a.22.22 0 0 1 .07 0h.23v2.03h-.29v-1.63l-.8 1.27a.11.11 0 0 1-.05.04.14.14 0 0 1-.07.02h-.04c-.03 0-.06 0-.08-.02a.11.11 0 0 1-.04-.04l-.84-1.28v1.63h-.27v-2.03h.31l.04.05.82 1.25.05.07zm3.02-.1v.76h-.31V26.5h.7c.14 0 .27.02.4.05.1.02.2.06.28.13.07.05.12.12.15.2.04.08.06.17.06.25v.01c0 .19-.1.35-.23.46a.82.82 0 0 1-.29.13c-.11.04-.24.06-.37.05h-.39zm0-.22h.39l.24-.03a.55.55 0 0 0 .18-.1.38.38 0 0 0 .14-.3v-.02c0-.05 0-.1-.03-.14a.4.4 0 0 0-.1-.14.68.68 0 0 0-.43-.11h-.39v.84zm4.24.98h-.24c-.03 0-.05 0-.07-.02a.13.13 0 0 1-.04-.04l-.22-.5h-1.08l-.21.5a.1.1 0 0 1-.04.04.12.12 0 0 1-.07.02h-.25l.93-2.04h.33l.96 2.04zm-1.56-.76h.9l-.38-.82a1.18 1.18 0 0 1-.07-.2l-.04.11-.04.09-.37.83zm2.93-1.27.05.04 1.38 1.53v-1.58h.29v2.04h-.17l-.06-.01a.17.17 0 0 1-.05-.04l-1.38-1.53v1.58h-.28V26.5h.16l.06.01zm4.03 1.22v.8h-.31v-.8l-.87-1.23h.28l.07.02.04.05.55.79.09.17.04-.08.06-.1.54-.8a.3.3 0 0 1 .04-.03.1.1 0 0 1 .06-.02h.3l-.88 1.23zM27.01 23.1l.41.03c2.1-.79 3.86-2.11 5.16-3.8l.02-.03a9 9 0 0 0 1.84-5.47v-.17l-2.34-2a10 10 0 0 1-.67 6.4l.02-.06c-1 2.12-2.51 3.85-4.4 5.07l-.05.03z"/><path d="m26.17 23 .06.01a11.64 11.64 0 0 0 4.7-5.25 9.69 9.69 0 0 0 .42-6.59l-3.33-2.86a12.1 12.1 0 0 1 1.56 7.57A12.81 12.81 0 0 1 26.17 23zm11.33-6.98a10.28 10.28 0 0 1-3.93 5.63c-.58.43-1.2.82-1.87 1.15a11.62 11.62 0 0 0 4.37-2.12l-.02.02a9.56 9.56 0 0 0 2.78-3.46l.03-.06-1.36-1.16z"/><path d="m36.97 15.7-1.93-1.65c-.05 2-.72 3.85-1.83 5.35l.02-.03a11.82 11.82 0 0 1-4.65 3.77l-.07.03c.44 0 .87-.02 1.3-.07a12 12 0 0 0 4.67-2.93 9.58 9.58 0 0 0 2.47-4.4l.02-.07zM26.45 7.11l-2.3-1.97a10.91 10.91 0 0 0-5.07 3.41l-.01.02a8.4 8.4 0 0 0-1.93 5.27 8.51 8.51 0 0 0 2.34 5.75c1.5 1.64 3.6 2.8 5.96 3.3a12.33 12.33 0 0 0 3.53-7.75c.18-2.83-.7-5.65-2.52-8.02zM42.3 15.4a8.73 8.73 0 0 0-3.2-6.59 11.89 11.89 0 0 0-7.62-2.74h-.1c-1.33 0-2.66.21-3.9.63l14.08 12.04c.46-.98.73-2.13.74-3.34z"/></symbol><symbol id="icon-Logo-3" viewBox="0 0 59 32"><path d="M13.76 12.3c-1.37 0-2.47 1-2.47 2.23s1.1 2.22 2.47 2.22c1.36 0 2.47-1 2.47-2.23s-1.11-2.23-2.47-2.23zm18.22-.72c0-1.7-.76-3.34-2.1-4.55a7.54 7.54 0 0 0-5-1.89h-.05c-1.89 0-3.7.69-5.04 1.89a6.14 6.14 0 0 0-2.1 4.55V21s14.29-1.44 14.29-9.41zm-25.7 12.5c.02 1.27.58 2.4 1.46 3.17a5.25 5.25 0 0 0 3.49 1.32h.03c1.31 0 2.57-.47 3.5-1.31a4.28 4.28 0 0 0 1.47-3.17v-6.55s-9.94 1-9.94 6.55zm4.98 1.18a1.4 1.4 0 0 1-.73-.2c-.2-.12-.37-.3-.48-.51v-.01a1.05 1.05 0 0 1-.07-.69c.05-.23.18-.44.36-.6.18-.16.4-.27.66-.31a1.4 1.4 0 0 1 1.34.5 1.09 1.09 0 0 1-.16 1.48 1.45 1.45 0 0 1-.92.35zm9.08-2.1v2.43h-.5v-2.44h.5zm.97 1.03v.4h-1.1v-.4h1.11zm.12-1.04v.4h-1.22v-.4h1.22zm2.3 1.16v.12c0 .18-.03.35-.07.5-.06.14-.13.27-.22.37s-.2.18-.33.24c-.12.06-.26.08-.42.08h-.04a.94.94 0 0 1-.7-.32 1.1 1.1 0 0 1-.22-.38 1.5 1.5 0 0 1-.08-.49v-.12c0-.19.03-.35.08-.5a.94.94 0 0 1 .21-.37c.1-.1.2-.18.33-.24s.27-.08.42-.08.3.02.42.08c.13.06.24.13.33.24a1.34 1.34 0 0 1 .3.87zm-.51.12v-.12c0-.13 0-.24-.03-.34a.74.74 0 0 0-.1-.25.44.44 0 0 0-.38-.2h-.04c-.16 0-.3.08-.38.2a.9.9 0 0 0-.1.25c-.02.1-.03.21-.03.34v.12c0 .13.01.24.03.34.03.1.06.19.1.25.05.07.11.12.18.15a.47.47 0 0 0 .61-.15.7.7 0 0 0 .1-.25c.03-.1.04-.21.04-.34zm2.14.52v-.01c0-.04 0-.07-.02-.1a.22.22 0 0 0-.07-.1l-.15-.1a1.7 1.7 0 0 0-.24-.08l-.32-.12-.26-.16a.64.64 0 0 1-.17-.2.56.56 0 0 1 0-.56c.05-.09.1-.15.19-.22.08-.05.17-.1.29-.13a1.28 1.28 0 0 1 .84.05h-.01a.71.71 0 0 1 .42.65h-.5a.37.37 0 0 0-.05-.19.32.32 0 0 0-.13-.12.47.47 0 0 0-.21-.06h-.02a.53.53 0 0 0-.21.04.28.28 0 0 0-.13.11.25.25 0 0 0-.05.15c0 .04.01.07.03.11l.1.1.34.15h.02a1.68 1.68 0 0 1 .6.3c.13.12.21.29.21.47v.02c0 .1-.02.2-.06.28a.72.72 0 0 1-.18.21.81.81 0 0 1-.28.14 1.35 1.35 0 0 1-1.05-.16h.01a.74.74 0 0 1-.23-.24.73.73 0 0 1-.08-.36h.5c0 .08 0 .14.03.2.03.05.06.1.1.12.05.03.1.06.16.07.06.02.13.03.2.03.08 0 .15-.02.21-.04.1-.04.17-.14.17-.25zm1.93-1.8v2.44h-.5v-2.44h.5zm.76 0v.4h-2v-.4h2zm1.92 2.05v.39h-1.3v-.39h1.3zm-1.14-2.05v2.44h-.5v-2.44h.5zm.96 1v.38h-1.12v-.39h1.12zm.18-1v.4h-1.3v-.4h1.3zm.29 0h.91c.18 0 .34.03.48.08a.66.66 0 0 1 .42.65c0 .14-.02.25-.07.34-.04.1-.1.17-.18.23a.96.96 0 0 1-.29.15l-.15.08h-.8v-.38h.59c.08 0 .16-.02.22-.06a.3.3 0 0 0 .13-.12.4.4 0 0 0 .04-.19v-.02a.44.44 0 0 0-.04-.2.3.3 0 0 0-.13-.12.48.48 0 0 0-.21-.05H30.76v2.05h-.5v-2.44zm1.36 2.44-.56-1.09h.53l.57 1.07v.02h-.54zm2.64-.87h-.63v-.4h.65c.08 0 .15-.01.21-.04s.1-.07.13-.13.05-.12.05-.2a.5.5 0 0 0-.05-.2.34.34 0 0 0-.13-.15.43.43 0 0 0-.21-.06H33.8v2.05h-.5v-2.44h.95c.2 0 .35.04.49.1.25.13.42.39.42.68v.03c0 .15-.03.28-.1.4a.73.73 0 0 1-.32.27c-.14.06-.3.1-.5.1zm2.9.48v.39h-1.3v-.39h1.3zm-1.14-2.05v2.44h-.5v-2.44h.5zm.96 1v.38h-1.12v-.39h1.12zm.17-1v.4h-1.3v-.4h1.3zm1.42 0v2.44h-.5v-2.44h.5zm.75 0v.4h-1.99v-.4h1.99zm1.92 2.05v.39h-1.3v-.39h1.3zm-1.13-2.06v2.44h-.5v-2.44h.5zm.97 1v.38h-1.14v-.38h1.13zm.17-1v.4h-1.3v-.4h1.29zm.29 0h.91c.18 0 .34.03.48.09.13.06.24.14.31.25.07.1.11.24.11.4 0 .13-.03.25-.07.34-.04.09-.1.17-.18.23a1 1 0 0 1-.28.15l-.16.08h-.8v-.39h.6c.08 0 .15-.02.21-.05a.3.3 0 0 0 .13-.13.4.4 0 0 0 .05-.18v-.02a.44.44 0 0 0-.05-.2.3.3 0 0 0-.13-.13.48.48 0 0 0-.2-.05H42.03v2.05h-.5v-2.44zm1.37 2.44-.56-1.08h.53l.56 1.06v.02h-.54zm2.1-.64-.02-.11a.22.22 0 0 0-.08-.1l-.14-.09a1.7 1.7 0 0 0-.25-.09l-.3-.12c-.1-.04-.2-.1-.27-.16a.57.57 0 0 1-.24-.46v-.03c0-.1.03-.19.07-.27.04-.08.1-.15.18-.21.08-.06.18-.1.3-.14a1.28 1.28 0 0 1 .83.06c.13.06.23.14.3.26s.12.24.12.38H45v-.01a.38.38 0 0 0-.05-.18.31.31 0 0 0-.13-.12.47.47 0 0 0-.22-.05h-.02a.53.53 0 0 0-.2.04.28.28 0 0 0-.13.1.25.25 0 0 0-.05.15l.03.12c.02.03.05.06.1.09.1.06.22.11.34.15l.01.01a1.68 1.68 0 0 1 .61.3c.13.12.2.28.2.47v.01c0 .1-.02.2-.05.29-.05.08-.1.15-.18.2s-.17.11-.29.14a1.35 1.35 0 0 1-1.04-.15.74.74 0 0 1-.22-.25.73.73 0 0 1-.09-.36h.5c0 .08.01.15.04.2.03.06.06.1.1.12.04.04.1.06.15.08l.2.02c.09 0 .16-.02.22-.04.1-.04.17-.13.17-.24z"/></symbol><symbol id="icon-Logo-4" viewBox="0 0 59 32"><path d="M15.31 25.35c.14.16.21.36.21.56 0 .13-.02.26-.07.38s-.15.23-.25.31a1.5 1.5 0 0 1-.95.26h-1.68v-3.5h1.64c.32-.02.64.06.9.23.11.08.2.18.25.3s.08.23.08.35c0 .2-.06.39-.2.54a.95.95 0 0 1-.5.28c.23.03.43.14.57.3zm-1.96-.52h.7c.16.01.32-.03.44-.11.06-.05.1-.1.12-.16a.34.34 0 0 0 .04-.2v-.01a.43.43 0 0 0-.15-.32.73.73 0 0 0-.4-.12h-.75v.91zm1.21 1.34c.06-.05.1-.1.13-.16a.4.4 0 0 0 .04-.16v-.07a.4.4 0 0 0-.04-.17.45.45 0 0 0-.13-.15.78.78 0 0 0-.43-.13h-.78v.95h.74c.17.02.33-.03.47-.12zm4.1.69-.92-1.37h-.34v1.37h-.78v-3.5h1.48c.37-.02.75.08 1.03.3a1.04 1.04 0 0 1 .12 1.44c-.19.2-.44.32-.71.36l.97 1.4h-.86zm-1.26-1.84h.65c.44 0 .66-.18.66-.53v-.02a.47.47 0 0 0-.04-.2.53.53 0 0 0-.12-.18.74.74 0 0 0-.5-.14h-.65v1.07zm5.54 1.14h-1.56l-.28.7h-.82l1.43-3.46h.89l1.43 3.46h-.82l-.27-.7zm-.2-.53-.58-1.49-.57 1.49h1.14zm5.56 1.23h-.78l-1.74-2.38v2.38H25v-3.5h.78l1.74 2.4v-2.4h.78v3.5zm4.44-.84c-.16.27-.4.48-.7.62-.35.15-.72.23-1.1.22h-1.39v-3.5h1.4c.37-.01.74.06 1.08.21.3.14.55.35.7.61a1.85 1.85 0 0 1 0 1.85zm-.9-.08c.24-.23.35-.53.35-.84s-.11-.6-.34-.83a1.44 1.44 0 0 0-.98-.3h-.54v2.27h.55c.35.02.7-.09.97-.3zM23.44 3.87s10.03 3.41 9.82 8.34v8.36s-10.03-3.42-9.82-8.35V3.87zM42.19 18.6c1.83-1.13 4-1.9 6.32-2.1l.06-.01v-2.62c-2.63.9-4.81 2.55-6.35 4.7l-.03.03z"/><path d="M41.06 19.4a13.32 13.32 0 0 1 7.42-6.04l.1-.03V5.8s-14.3 4.86-14 11.9v11.88s.64-.21 1.64-.62c0-.38 0-.77.04-1.15.3-3.27 2.02-6.29 4.8-8.4z"/><path d="M39.7 23.82c.07-.83.24-1.64.5-2.44a10.87 10.87 0 0 0-3.03 7.16v.02c1.2-.51 2.1-.95 2.99-1.42l-.24.12a10.8 10.8 0 0 1-.23-3.49v.05zm.56.04c-.1 1.04-.03 2.09.18 3.12 3.9-2.1 8.3-5.36 8.13-9.29v-.34c-2.79.28-5.4 1.38-7.43 3.12a10.5 10.5 0 0 0-.87 3.34v.05z"/></symbol><symbol id="icon-Logo-5" viewBox="0 0 59 32"><path d="M30.59 15.68a1.68 1.68 0 0 1-.34-1.14V12.9c0-.5.11-.88.34-1.15.23-.27.62-.4 1.18-.4.53 0 .9.12 1.12.34.24.29.36.64.33.99v.39h-.93v-.4l-.03-.38a.37.37 0 0 0-.13-.23.54.54 0 0 0-.3-.09h-.1a.57.57 0 0 0-.31.1.44.44 0 0 0-.15.25c-.03.14-.04.27-.04.4v2.01a1 1 0 0 0 .12.56c.05.06.11.12.2.14a.5.5 0 0 0 .23.03h.04c.1 0 .21-.03.3-.09a.4.4 0 0 0 .13-.24c.03-.13.03-.27.03-.4v-.41h.94v.37c.03.37-.09.73-.33 1.04-.2.24-.58.37-1.12.37-.54 0-.95-.13-1.18-.4zm3.91.02c-.24-.26-.36-.63-.36-1.13v-1.74c0-.48.12-.85.36-1.1.24-.26.63-.38 1.2-.38.55 0 .94.12 1.17.37.25.26.37.63.37 1.11v1.74c0 .5-.13.87-.37 1.13-.24.25-.63.39-1.18.39s-.95-.14-1.19-.4zm1.63-.42c.08-.16.12-.34.11-.51v-2.12c.01-.17-.02-.35-.1-.51a.45.45 0 0 0-.2-.14.5.5 0 0 0-.25-.03h-.06a.52.52 0 0 0-.19.03.46.46 0 0 0-.19.14.93.93 0 0 0-.11.5v2.14c-.01.17.03.35.11.51.06.06.12.1.2.13a.65.65 0 0 0 .48 0 .57.57 0 0 0 .2-.13v-.01zm2.24-3.88h1l.77 3.2.77-3.2h.99l.1 4.62h-.73l-.08-3.21-.75 3.21h-.58l-.78-3.23-.07 3.23h-.73l.09-4.63zm4.76 0h1.58c.9 0 1.36.43 1.36 1.31 0 .84-.48 1.26-1.43 1.26h-.54v2.05h-.98l.01-4.63zm1.35 1.97a.8.8 0 0 0 .54-.14c.1-.16.16-.34.13-.53 0-.13 0-.28-.04-.41a.39.39 0 0 0-.2-.22.94.94 0 0 0-.43-.08h-.38v1.38h.38zm3-1.97h1.04l1.07 4.62h-.9l-.21-1.07h-.94l-.22 1.07h-.91l1.07-4.63zm.89 3.02L48 12.47l-.36 1.95h.73zm2.09-3.02h.68l1.3 2.63V11.4h.8v4.62h-.64l-1.31-2.75v2.75h-.83V11.4zm4.68 2.86-1.08-2.86h.91l.66 1.84.62-1.83h.9l-1.08 2.85v1.76h-.93v-1.76zM32.1 18.04v.25h-.8v1.87h-.32v-1.87h-.8v-.25h1.92zm2.49 2.12h-.26a.1.1 0 0 1-.07-.02.11.11 0 0 1-.04-.05l-.23-.5h-1.1l-.24.5-.03.06a.12.12 0 0 1-.07.02h-.26l.97-2.12h.34l.99 2.11zm-1.61-.78h.92l-.4-.87a1.29 1.29 0 0 1-.06-.19l-.04.1-.03.1-.4.85zm3.29.57h.18c.1 0 .2-.03.3-.06l.12-.06v-.47h-.42l-.02-.02-.02-.01v-.19h.76v.81c-.19.12-.41.2-.65.22l-.3.02c-.16 0-.33-.03-.48-.08a1.05 1.05 0 0 1-.64-.55v-.01c-.06-.14-.1-.29-.1-.44v-.04c0-.3.14-.56.35-.74.11-.1.24-.17.38-.22a1.6 1.6 0 0 1 .8-.06c.16.02.3.07.43.14l.17.11-.1.13-.03.03a.1.1 0 0 1-.04 0l-.07-.01a1.15 1.15 0 0 1-.1-.05 1.2 1.2 0 0 0-.52-.12h-.03a.94.94 0 0 0-.38.06.75.75 0 0 0-.46.43.99.99 0 0 0 0 .7c.04.1.1.2.2.27a.83.83 0 0 0 .67.21zm3.1-.03h1.06v.24h-1.39v-2.11h.33v1.87zm2.17.24h-.34v-2.11h.34v2.11zm1.23-2.1.06.03 1.41 1.6v-1.66h.29v2.13h-.17l-.06-.01a.2.2 0 0 1-.06-.04l-1.42-1.6v1.65h-.28v-2.11h.23zm4.21-.02v.23H45.8v.7h.96v.24h-.96v.72h1.18v.22h-1.52v-2.1h1.52zM12.11 4.94l14.77 3.63v12.68l-14.77-3.62V4.95zm-.94-1.08v14.4l16.66 4.07V7.96l-16.66-4.1z"/><path d="m20.1 29.01-16.67-4.1V10.54l16.67 4.09V29z"/><path d="m11.44 4.78 14.58 3.58-6.2 5.35-14.58-3.57 6.2-5.36zm-.27-.91-7.74 6.67 16.67 4.09 7.73-6.67-16.66-4.1zm9.86 24.33 6.8-5.86-6.8-1.67v7.53z"/></symbol><symbol id="icon-Logo-0" viewBox="0 0 59 32"><path d="m21.71 4 4 3.82h-7.43v18.5h19.43v-7.08l4 3.81V4h-20zm15.83 14.8L26.18 7.97h11.36V18.8zm-3.53 4.81H21.36V11.17h.9v11.6H34v.84zM23.9 29.75l-.48-.97h-.39l.69 1.28v.75h.35v-.75l.68-1.28h-.38l-.47.97zm1.73-.97h.08l.77 2.03h-.37l-.16-.47h-.79l-.16.47h-.37l.77-2.03h.23zm-.37 1.28h.6l-.3-.86-.3.86zm2.46-.34a1.03 1.03 0 0 1-.16-.25.54.54 0 0 1 .02-.48c.04-.08.1-.13.18-.17a.54.54 0 0 1 .28-.07c.1 0 .19.02.26.06a.44.44 0 0 1 .2.57.77.77 0 0 1-.24.27l-.14.1.4.47c.06-.1.1-.23.1-.37h.28c0 .1 0 .18-.03.28a.88.88 0 0 1-.15.33l.3.35h-.39l-.11-.13c-.07.04-.14.08-.21.1a.91.91 0 0 1-.67-.02.56.56 0 0 1-.22-.2.55.55 0 0 1-.03-.52 1.24 1.24 0 0 1 .33-.32zm.16.2-.04.03a.5.5 0 0 0-.11.12.34.34 0 0 0-.02.34c.03.05.06.1.11.12a.51.51 0 0 0 .5-.07h.01l-.45-.53zm.08-.37.13-.08.12-.11a.25.25 0 0 0 .04-.14c0-.12-.09-.2-.2-.2h-.01a.2.2 0 0 0-.2.11.28.28 0 0 0 0 .25h.01l.09.14.02.03zm3.55.6h-.34c0 .08-.03.16-.07.23a.31.31 0 0 1-.14.13.52.52 0 0 1-.22.05h-.03a.4.4 0 0 1-.35-.19.67.67 0 0 1-.08-.2v-.01a1.44 1.44 0 0 1-.03-.28v-.17c0-.1.01-.2.03-.28.02-.09.05-.16.1-.22s.08-.1.14-.13a.44.44 0 0 1 .2-.04h.01c.1 0 .18.02.24.04.06.04.1.08.14.15.02.06.05.13.05.23h.36a1.06 1.06 0 0 0-.12-.37.69.69 0 0 0-.26-.25.84.84 0 0 0-.38-.08h-.03c-.13 0-.24.02-.34.06s-.2.12-.27.2a1.03 1.03 0 0 0-.22.7v.17c0 .14.02.27.06.39.04.12.09.22.16.3.14.17.34.27.57.27h.03c.16 0 .3-.03.41-.1.12-.05.21-.14.27-.24a1 1 0 0 0 .12-.36zm1.95-.3v-.11c0-.15-.03-.29-.07-.41a.9.9 0 0 0-.17-.31.72.72 0 0 0-.26-.2.83.83 0 0 0-.34-.07h-.01a.83.83 0 0 0-.34.07c-.1.04-.2.11-.27.2s-.13.19-.17.3c-.04.13-.06.27-.06.42v.11c0 .15.02.29.06.41.04.13.1.23.17.32.14.16.35.26.58.26h.03c.13 0 .24-.02.34-.07a.78.78 0 0 0 .44-.5c.04-.13.06-.27.06-.42zm-.36-.11v.11c0 .11-.01.21-.03.3-.02.09-.05.16-.1.22s-.08.1-.15.14a.46.46 0 0 1-.2.04h-.01a.45.45 0 0 1-.2-.04.44.44 0 0 1-.16-.14.7.7 0 0 1-.1-.22 1.18 1.18 0 0 1-.03-.28v-.13c0-.12.01-.21.03-.3.03-.1.06-.17.1-.22a.44.44 0 0 1 .36-.18c.08 0 .15.02.21.05.06.03.11.07.15.13a.5.5 0 0 1 .1.21l.03.3z"/></symbol><symbol id="icon-instagram" viewBox="0 0 32 32"><path fill="#f4f4fd" d="M31.96 9.4c-.03-1.4-.3-2.73-.77-3.96l.03.08A8.09 8.09 0 0 0 26.54.84c-1-.4-2.18-.66-3.88-.74a104.85 104.85 0 0 0-6.69-.1h.09c-4.34 0-4.88 0-6.6.1C7.76.16 6.6.44 5.6.84A8.09 8.09 0 0 0 .92 5.52c-.4 1-.66 2.2-.74 3.88a104.77 104.77 0 0 0-.12 6.67V16c0 4.34 0 4.9.08 6.6s.36 2.86.76 3.88a8.09 8.09 0 0 0 4.68 4.68c1 .4 2.18.68 3.88.74 1.7.08 2.24.1 6.6.1 4.34 0 4.88 0 6.6-.1 1.4-.03 2.73-.3 3.96-.77l-.08.03a8.25 8.25 0 0 0 4.66-4.63l.02-.05c.4-1.02.66-2.2.74-3.88.08-1.7.08-2.26.08-6.6s0-4.88-.08-6.6zm-2.88 13.08a8.52 8.52 0 0 1-.54 2.96 5.3 5.3 0 0 1-3.04 3.04c-.56.22-1.4.48-2.98.56-1.68.06-2.2.08-6.46.08s-4.78 0-6.46-.08a8.77 8.77 0 0 1-3.02-.58l.06.02a4.94 4.94 0 0 1-1.84-1.2 4.99 4.99 0 0 1-1.19-1.8l-.01-.04a8.65 8.65 0 0 1-.54-2.96 108.54 108.54 0 0 1-.1-6.54v.08c0-4.28 0-4.8.1-6.46.06-1.58.32-2.4.54-2.98a4.9 4.9 0 0 1 1.2-1.84 5.15 5.15 0 0 1 1.84-1.2c.56-.2 1.4-.48 2.96-.54 1.7-.08 2.2-.1 6.48-.1 4.26 0 4.78.02 6.46.1a8.4 8.4 0 0 1 2.96.56c.7.24 1.34.66 1.84 1.2.54.5.94 1.12 1.2 1.82.2.56.48 1.4.54 2.98.08 1.68.1 2.2.1 6.46s0 4.76-.1 6.46z" style="fill:var(--color1, #f4f4fd)"/><path fill="#f4f4fd" d="m16.06 7.8-.4-.01a8.22 8.22 0 1 0 .42 16.43h-.02a8.22 8.22 0 1 0 0-16.44zm0 13.54a5.34 5.34 0 0 1 0-10.68 5.34 5.34 0 0 1 0 10.68zM26.52 7.46a1.92 1.92 0 0 1-3.84 0 1.92 1.92 0 0 1 3.84 0z" style="fill:var(--color1, #f4f4fd)"/></symbol><symbol id="icon-twitter" viewBox="0 0 32 32"><path fill="#f4f4fd" d="M32 6.08c-1.2.52-2.46.86-3.78 1.04 1.36-.8 2.4-2.1 2.88-3.64-1.26.76-2.66 1.3-4.16 1.6a6.58 6.58 0 0 0-11.2 6.03v-.05A18.55 18.55 0 0 1 2.27 4.23l-.03-.03a6.6 6.6 0 0 0 2 8.74l.02.02a6.45 6.45 0 0 1-3-.82l.04.02v.06a6.6 6.6 0 0 0 5.22 6.45l.04.01a6.38 6.38 0 0 1-3 .1h.04a6.64 6.64 0 0 0 6.11 4.56h.01a13.12 13.12 0 0 1-9.78 2.71H0A18.28 18.28 0 0 0 10 29h.06c12.08 0 18.68-10 18.68-18.66l-.02-.86c1.3-.94 2.38-2.06 3.25-3.35l.03-.05z" style="fill:var(--color1, #f4f4fd)"/></symbol><symbol id="icon-facebook" viewBox="0 0 32 32"><path fill="#f4f4fd" d="M21.32 5.32h2.94V.2C23.74.16 22 0 20 0c-4.2 0-7.1 2.64-7.1 7.52V12H8.24v5.68h4.66V32h5.7V17.68h4.46l.7-5.68H18.6V8.08c0-1.64.44-2.76 2.72-2.76z" style="fill:var(--color1, #f4f4fd)"/></symbol><symbol id="icon-linkedin" viewBox="0 0 32 32"><path fill="#f4f4fd" d="M32 32V20.26c0-5.74-1.24-10.16-7.94-10.16-3.24 0-5.4 1.76-6.28 3.44h-.1v-2.9h-6.36V32h6.62V21.4c0-2.8.54-5.48 4-5.48 3.4 0 3.44 3.18 3.44 5.66V32h6.6zM.52 10.64h6.64V32H.52V10.64zM3.84 0C1.72 0 0 1.72 0 3.84s1.72 3.88 3.84 3.88 3.84-1.76 3.84-3.88S5.96 0 3.84 0z" style="fill:var(--color1, #f4f4fd)"/></symbol><symbol id="icon-antenna" viewBox="0 0 32 32"><path fill="#2e2f42" d="m30.77 22.1-8.44-8.5.94-4.62c.24.1.5.14.76.14h.03a2.16 2.16 0 1 0-2.03-1.42V7.7l-4.97.6L8.97.16A.53.53 0 0 0 8.6 0a.54.54 0 0 0-.38.15l-1.5 1.5a.53.53 0 0 0 0 .76l.8.83a14.9 14.9 0 0 0 2.52 17.66l.15.1c-.03.16-.05.35-.05.55v6.18h-6.4a2.67 2.67 0 0 0-2.67 2.67v1.07c0 .3.24.53.54.53h24.53c.3 0 .53-.24.53-.53V30.4c0-1.47-1.2-2.67-2.66-2.67h-6.4V25a14.78 14.78 0 0 0 10.17-1.5l-.08.04.81.82a.53.53 0 0 0 .75 0l1.52-1.5a.53.53 0 0 0 0-.75zM23.28 6.23c.2-.19.46-.3.75-.3a1.07 1.07 0 0 1 0 2.13 1.07 1.07 0 0 1-.75-1.83zm-1.26 3.5-.6 2.95-1.17-1.18 1.77-1.76zm-.6-.9-1.92 1.92L18 9.25l3.4-.41zM24 28.8c.89 0 1.6.72 1.6 1.6v.53H2.14v-.53c0-.88.71-1.6 1.6-1.6H24zm-7.46-2.13v1.06H11.2v-1.06h5.34zM11.2 25.6v-4.05c0-1.3 1.2-2.35 2.67-2.35s2.67 1.05 2.67 2.35v4.05H11.2zm6.4-1.7v-2.35c0-1.89-1.67-3.42-3.73-3.42h-.06a3.8 3.8 0 0 0-3.21 1.78l-.01.01A13.82 13.82 0 0 1 8.35 3.96l-.04.08 18.6 18.7a13.64 13.64 0 0 1-9.4 1.15l.1.02zm11.3-.68L7.83 2.04l.75-.75 7.94 7.98 13.12 13.2-.76.75z" style="fill:var(--color2, #2e2f42)"/><path fill="#4d5ae5" d="M13.88 20.27h-.01a1.6 1.6 0 0 0 0 3.2 1.6 1.6 0 0 0 0-3.2zm.37 1.98c-.1.1-.23.15-.38.15a.53.53 0 0 1 0-1.07.53.53 0 0 1 .37.92z" style="fill:var(--color3, #4d5ae5)"/></symbol><symbol id="icon-astronaut" viewBox="0 0 32 32"><path fill="#4d5ae5" d="M31.97 4.52a.54.54 0 0 0-.42-.36l-1.92-.28-.85-1.73c-.18-.36-.78-.36-.96 0l-.85 1.73-1.91.28a.53.53 0 0 0-.3.91l1.38 1.35-.32 1.9a.53.53 0 0 0 .77.56l1.71-.9 1.71.9a.53.53 0 0 0 .77-.57v.01l-.32-1.9 1.38-1.35a.53.53 0 0 0 .13-.55zm-2.46 1.33a.53.53 0 0 0-.15.47l.19 1.12-1-.53a.52.52 0 0 0-.5 0l-1 .53.2-1.12a.53.53 0 0 0-.15-.47l-.82-.79 1.12-.16a.53.53 0 0 0 .4-.3l.5-1 .5 1c.08.16.23.27.4.3l1.12.16-.8.8zm-3.38 14.67h-1.06v1.07h1.06v-1.07zm0 2.14h-1.06v1.06h1.06v-1.06zM27.2 21.59h-1.07v1.07h1.07v-1.07zm-2.13 0H24v1.07h1.07v-1.07zm-2.67 4.8h-1.07v1.07h1.07v-1.07zm0 2.13h-1.07v1.07h1.07v-1.07zm1.07-1.06H22.4v1.06h1.07v-1.06zM21.33 27.46h-1.06v1.06h1.06v-1.06zM16 24.26h-1.07v1.06H16v-1.06zm0 2.13h-1.07v1.07H16v-1.07zm1.07-1.07H16v1.07h1.07v-1.07zm-2.14 0h-1.06v1.07h1.06v-1.07zM5.87 6.12H4.8V7.2h1.07V6.12zm0 2.14H4.8v1.06h1.07V8.26zm1.06-1.07H5.87v1.07h1.06V7.19zm-2.13 0H3.73v1.07H4.8V7.19z" style="fill:var(--color3, #4d5ae5)"/><path fill="#2e2f42" d="M24.71 14.16c-.28-.38-.7-.64-1.17-.7h-.01a1.76 1.76 0 0 0-1.34.36v-.01l-1.26.96-1.9 1.41-1.35-.54A6.94 6.94 0 0 0 14.83 2.4a6.96 6.96 0 0 0-6.96 6.93c0 1.39.41 2.68 1.12 3.76l-2.77-.02H6.2c-.06 0-.1.01-.16.03l-.04.02H6l-3.24 1.6-1.9.91a1.78 1.78 0 0 0-.66 2.34v-.01a1.78 1.78 0 0 0 2.45.76l1.38-.74 2.26-1.17h1.36L2.2 22.2.86 23.55a1.65 1.65 0 0 0 0 2.36 1.67 1.67 0 0 0 2.36 0l1.31-1.32 1.74-1.3.9.9-3.1 3.09a1.66 1.66 0 0 0 1.18 2.84c.43 0 .85-.16 1.18-.48l3.48-3.47 1.01-1 .02-.02 5.17-5.66 3.47.5h.07c.07 0 .13-.01.2-.04h-.01l.05-.02.06-.03 3.21-2.13.03-.03.04-.03 1.27-1.19a1.78 1.78 0 0 0 .21-2.36zM2.14 17.77a.71.71 0 0 1-.56.05.72.72 0 0 1-.21-1.26l1.31-.63.32.93.13.38-1 .53zm3.5-1.83-1.55.8-.26-.74-.18-.54 2.03-1-.04 1.48zm15.1-6.62c0 .92-.22 1.79-.6 2.56l-4.18-1.9a1.86 1.86 0 0 0-.79-1.38l1.46-4.87a5.88 5.88 0 0 1 4.1 5.6zm-11.8 0a5.89 5.89 0 0 1 6.65-5.81l-1.44 4.75h-.05c-1.04 0-1.87.83-1.88 1.86a1.87 1.87 0 0 0 3.5.92l3.86 1.76A5.9 5.9 0 0 1 8.94 9.32zm5.96.8a.8.8 0 0 1-1.61 0c0-.44.36-.8.8-.8s.81.36.81.8zM2.46 25.15a.6.6 0 0 1-.85 0 .6.6 0 0 1 0-.85l.96-.96.85.85-.95.96zm3.22 3.73a.6.6 0 0 1-.86 0 .6.6 0 0 1 0-.84l.97-.96.85.85-.96.95zm3.48-3.47-1.77 1.76-.85-.85 1.77-1.75c.04-.04.06-.1.09-.14l.02-.04c.02-.04.02-.08.03-.13l.01-.07c0-.04 0-.07-.02-.1l-.01-.1a.51.51 0 0 0-.1-.14l-.02-.04-1.61-1.6-.06-.04a.5.5 0 0 0-.08-.05.48.48 0 0 0-.1-.04.5.5 0 0 0-.1-.02h-.02l-.08.01a.59.59 0 0 0-.1.02.5.5 0 0 0-.1.05l-.05.02-1.78 1.33-.9-.9 2.4-2.39 4.36 4.3-.93.91zm6.82-7.02h-.07l-.1.01a.55.55 0 0 0-.27.13l-.03.03-4.7 5.15-4.33-4.26 2.84-2.82a.53.53 0 0 0-.38-.9H6.72l.03-1.6 3.1.02a6.93 6.93 0 0 0 4.98 2.1 7 7 0 0 0 1.28-.12c.04.04.08.07.13.09l2.41.96.15.76.18.88-3-.43zm4.04.18-.31-1.55 1.44-1.08.95 1.25-2.08 1.38zm3.75-2.83-.83.79-.94-1.24.84-.64a.73.73 0 0 1 1.02.14c.22.3.18.7-.09.95z" style="fill:var(--color2, #2e2f42)"/><path fill="#2e2f42" d="m13.6 18.54-2.14-2.13a.53.53 0 0 0-.75 0l-2.15 2.13a.53.53 0 0 0 0 .76l2.15 2.13a.53.53 0 0 0 .75 0l2.14-2.13a.53.53 0 0 0 0-.76zm-2.52 1.76L9.7 18.92l1.38-1.38 1.39 1.38-1.39 1.38zm6.08-15.23-.25 1.04c.07.01 1.73.45 1.73 2.14h1.07c0-2.01-1.66-2.96-2.54-3.18zm2.55 4.25h-1.07v1.07h1.07V9.32z" style="fill:var(--color2, #2e2f42)"/></symbol><symbol id="icon-clock" viewBox="0 0 31 32"><path d="M30.8 15.3a15.3 15.3 0 1 0-20.07 14.55l.1.03a.67.67 0 0 0 .53-.06c.14-.08.24-.2.29-.36l3.87-12.25a1.91 1.91 0 1 0-.86-3.63h.02l-5.11-5.1a.64.64 0 1 0-.9.9l5.1 5.1a1.87 1.87 0 0 0 .53 2.3v.01l-3.68 11.67a14.04 14.04 0 1 1 10.66-.38l-.09.03-.4-1.87a.64.64 0 0 0-1.04-.34l-3.84 3.42a.64.64 0 0 0 .23 1.08l4.9 1.57a.64.64 0 0 0 .82-.74l-.4-1.84a15.29 15.29 0 0 0 9.34-14.06v-.03zm-15.3-.64a.64.64 0 0 1 0 1.28.64.64 0 0 1 0-1.28zm2.1 14.87 2.18-1.95.6 2.84-2.79-.9z"/></symbol><symbol id="icon-ps" viewBox="0 0 41 32"><path d="M2.05 31.73H34.8c1.13 0 2.05-.91 2.05-2.05v-2.73c0-1.13-.92-2.04-2.05-2.04h-.68V7.89l3.87-3.67a2.06 2.06 0 1 0-.95-.96v-.01L34.12 6V4.44c0-1.13-.92-2.05-2.05-2.05H4.77c-1.12 0-2.04.92-2.04 2.05v20.47h-.68C.92 24.9 0 25.82 0 26.96v2.73c0 1.13.92 2.04 2.05 2.04zM38.89 1.71a.68.68 0 0 1 0 1.37.68.68 0 0 1 0-1.37zM4.1 4.44c0-.38.3-.68.69-.68h27.29c.38 0 .68.3.68.68v2.87l-1.36 1.3V5.8c0-.38-.3-.69-.69-.69H6.14c-.38 0-.68.3-.68.68v17.06c0 .38.3.68.68.68H30.7c.38 0 .69-.3.69-.68V10.48l1.36-1.3v15.73H4.09V4.44zm6.14 8.87a2.05 2.05 0 1 0 1.42 3.52l2.37 1.19c.28.14.61.07.82-.16l5.04-5.67 4.95 3.71c.27.2.64.18.88-.05l4.31-4.08v10.41H6.82V6.48h23.2V9.9l-4.83 4.58-5-3.75a.68.68 0 0 0-.91.09l-5.11 5.75-1.92-.95.03-.25c0-1.13-.92-2.05-2.05-2.05zm.69 2.05a.68.68 0 0 1-1.37 0 .68.68 0 0 1 1.37 0zm4.1 10.91h6.81v.69c0 .37-.3.68-.68.68H15.7a.68.68 0 0 1-.68-.68v-.69zm-13.66.69c0-.38.31-.69.69-.69h11.6v.69c0 1.13.91 2.05 2.04 2.05h5.46c1.13 0 2.05-.92 2.05-2.05v-.69h11.6c.37 0 .68.31.68.69v2.73c0 .37-.3.68-.68.68H2.05a.68.68 0 0 1-.69-.68v-2.73z"/></symbol></defs></svg>